<mxfile host="app.diagrams.net" agent="Mozilla/5.0 (Windows NT 10.0; Win64; x64) AppleWebKit/537.36 (KHTML, like Gecko) Chrome/129.0.0.0 Safari/537.36" version="24.7.16">
  <diagram name="Page-1" id="h-tneYW2rqGogtzoPnTy">
    <mxGraphModel dx="1181" dy="637" grid="1" gridSize="10" guides="1" tooltips="1" connect="1" arrows="1" fold="1" page="1" pageScale="1" pageWidth="850" pageHeight="1100" math="0" shadow="0">
      <root>
        <mxCell id="0" />
        <mxCell id="1" parent="0" />
        <mxCell id="Kvyq6MEuuqbAzw_cNFl9-3" value="main.js" style="rounded=1;whiteSpace=wrap;html=1;" vertex="1" parent="1">
          <mxGeometry x="40" y="80" width="170" height="100" as="geometry" />
        </mxCell>
        <mxCell id="Kvyq6MEuuqbAzw_cNFl9-13" value="" style="edgeStyle=orthogonalEdgeStyle;rounded=0;orthogonalLoop=1;jettySize=auto;html=1;" edge="1" parent="1" source="Kvyq6MEuuqbAzw_cNFl9-4" target="Kvyq6MEuuqbAzw_cNFl9-3">
          <mxGeometry relative="1" as="geometry" />
        </mxCell>
        <mxCell id="Kvyq6MEuuqbAzw_cNFl9-4" value="ShippingShipList" style="rounded=1;whiteSpace=wrap;html=1;" vertex="1" parent="1">
          <mxGeometry x="240" y="100" width="120" height="60" as="geometry" />
        </mxCell>
        <mxCell id="Kvyq6MEuuqbAzw_cNFl9-14" value="" style="edgeStyle=orthogonalEdgeStyle;rounded=0;orthogonalLoop=1;jettySize=auto;html=1;" edge="1" parent="1" source="Kvyq6MEuuqbAzw_cNFl9-5" target="Kvyq6MEuuqbAzw_cNFl9-4">
          <mxGeometry relative="1" as="geometry" />
        </mxCell>
        <mxCell id="Kvyq6MEuuqbAzw_cNFl9-5" value="HaulerList" style="rounded=1;whiteSpace=wrap;html=1;" vertex="1" parent="1">
          <mxGeometry x="400" y="100" width="120" height="60" as="geometry" />
        </mxCell>
        <mxCell id="Kvyq6MEuuqbAzw_cNFl9-15" value="" style="edgeStyle=orthogonalEdgeStyle;rounded=0;orthogonalLoop=1;jettySize=auto;html=1;" edge="1" parent="1" source="Kvyq6MEuuqbAzw_cNFl9-6" target="Kvyq6MEuuqbAzw_cNFl9-5">
          <mxGeometry relative="1" as="geometry" />
        </mxCell>
        <mxCell id="Kvyq6MEuuqbAzw_cNFl9-6" value="DockList" style="rounded=1;whiteSpace=wrap;html=1;" vertex="1" parent="1">
          <mxGeometry x="560" y="100" width="120" height="60" as="geometry" />
        </mxCell>
        <mxCell id="Kvyq6MEuuqbAzw_cNFl9-12" value="" style="edgeStyle=orthogonalEdgeStyle;rounded=0;orthogonalLoop=1;jettySize=auto;html=1;" edge="1" parent="1" source="Kvyq6MEuuqbAzw_cNFl9-7" target="Kvyq6MEuuqbAzw_cNFl9-6">
          <mxGeometry relative="1" as="geometry" />
        </mxCell>
        <mxCell id="Kvyq6MEuuqbAzw_cNFl9-7" value="database" style="ellipse;whiteSpace=wrap;html=1;" vertex="1" parent="1">
          <mxGeometry x="720" y="90" width="120" height="80" as="geometry" />
        </mxCell>
      </root>
    </mxGraphModel>
  </diagram>
</mxfile>
